<svg width="22" height="26" viewBox="0 0 22 26" fill="none" xmlns="http://www.w3.org/2000/svg">
<rect width="22" height="25.7575" fill="white"/>
<path d="M0 6.43938C0 4.66101 1.23105 3.2197 2.75 3.2197H19.25C20.7668 3.2197 22 4.66101 22 6.43938V19.3181C22 21.094 20.7668 22.5378 19.25 22.5378H2.75C1.23105 22.5378 0 21.094 0 19.3181V6.43938ZM2.0625 6.43938V7.55118L9.47461 14.6747C10.3598 15.53 11.6402 15.53 12.5254 14.6747L19.9375 7.55118V6.3941C19.9375 5.99667 19.6281 5.58918 19.25 5.58918H2.75C2.37016 5.58918 2.0625 5.99667 2.0625 6.3941V6.43938ZM2.0625 10.6753V19.3181C2.0625 19.7608 2.37016 20.123 2.75 20.123H19.25C19.6281 20.123 19.9375 19.7608 19.9375 19.3181V10.6753L13.8359 16.5411C12.1859 18.1258 9.81406 18.1258 8.12539 16.5411L2.0625 10.6753Z" fill="#CFCFCF"/>
</svg>
