<svg width="29" height="28" viewBox="0 0 29 28" fill="none" xmlns="http://www.w3.org/2000/svg">
<g clip-path="url(#clip0_74_190)">
<path d="M28.213 0.541323C28.7851 0.919561 29.0853 1.57337 28.9777 2.22718L25.3527 24.7053C25.2677 25.2295 24.9335 25.6888 24.4464 25.9481C23.9593 26.2075 23.3759 26.2399 22.8605 26.0346L15.7068 23.1978L13.4355 27.2233C13.141 27.7475 12.5123 28.0122 11.9062 27.8663C11.3002 27.7204 10.8753 27.2017 10.8753 26.6073V21.4201C10.8753 21.1337 10.9773 20.8527 11.1642 20.6258L20.5269 9.13814C20.6685 8.75449 20.1587 8.36545 19.7906 8.68425L9.65191 17.4324L7.83941 18.9939C7.31832 19.4424 6.57632 19.5667 5.92496 19.3073L1.1105 17.3945C0.476128 17.1406 0.0456594 16.5678 0.00601093 15.9086C-0.0336375 15.2494 0.317534 14.628 0.917925 14.2984L26.2929 0.465675C26.899 0.136067 27.6466 0.168488 28.2187 0.541323H28.213Z" fill="white"/>
</g>
<defs>
<clipPath id="clip0_74_190">
<rect width="29" height="27.6654" fill="white" transform="translate(0 0.23877)"/>
</clipPath>
</defs>
</svg>
